<svg xmlns="http://www.w3.org/2000/svg" viewBox="0 0 20 20"><text transform="translate(2.55 16.96)" style="font-family:Lato-Black,Lato;font-size:3.4px;letter-spacing:.03em;fill:#fff"><tspan x="0" y="0">3D VIEW</tspan></text><path d="M7.75 3.85a.934.934 0 0 1 .62.21c.07.06.13.14.16.22s.06.17.06.27c0 .09 0 .16-.03.22a.49.49 0 0 1-.21.29c-.05.03-.11.06-.17.08.3.1.45.31.45.61 0 .14-.03.27-.08.37a.79.79 0 0 1-.21.27c-.09.07-.19.12-.3.16s-.23.05-.36.05-.24-.01-.34-.04a.845.845 0 0 1-.27-.13.703.703 0 0 1-.2-.22c-.06-.09-.11-.2-.15-.33l.26-.1s.04-.02.07-.02h.06c.04 0 .08 0 .11.02s.06.04.07.07c.06.1.11.18.18.22s.14.07.22.07c.06 0 .12-.01.17-.03s.09-.05.12-.08.05-.07.07-.12c.02-.04.02-.09.02-.13 0-.06 0-.11-.01-.16s-.03-.09-.07-.12a.449.449 0 0 0-.17-.08c-.08-.02-.18-.03-.31-.03v-.4c.11 0 .2 0 .27-.03.07-.02.12-.04.16-.07s.06-.07.07-.11a.59.59 0 0 0 .02-.14c0-.11-.03-.19-.08-.25s-.13-.09-.23-.09c-.04 0-.08 0-.12.02s-.07.03-.1.05c-.03.02-.05.05-.07.07-.02.03-.04.06-.05.09-.02.06-.04.1-.08.12-.03.02-.07.04-.12.04H7.1l-.3-.05c.02-.13.06-.25.11-.35.06-.1.13-.18.21-.25a.73.73 0 0 1 .29-.15c.11-.03.22-.05.35-.05Zm2.35 1.02c.1 0 .19.02.29.05s.18.08.26.15c.08.07.14.15.18.25.05.1.07.22.07.36 0 .13-.02.25-.07.36-.05.11-.11.21-.2.3-.09.09-.19.15-.31.2s-.26.07-.4.07-.28-.02-.4-.07a.791.791 0 0 1-.3-.2.953.953 0 0 1-.19-.3c-.04-.12-.07-.25-.07-.39s.03-.27.08-.4.13-.27.23-.41l.61-.82s.07-.07.12-.09.12-.04.19-.04h.51l-.8.95s-.02.03-.04.04-.02.03-.03.04c.04-.02.09-.03.14-.04s.1-.01.15-.01Zm-.6.85c0 .07 0 .13.02.18s.04.1.07.14.08.07.13.09a.508.508 0 0 0 .35 0c.06-.02.09-.05.13-.09a.42.42 0 0 0 .12-.31c0-.07 0-.13-.03-.19a.42.42 0 0 0-.22-.23.467.467 0 0 0-.33 0c-.05.02-.09.05-.12.09-.03.04-.06.08-.08.14s-.03.11-.03.18Zm3.63-.49c0 .24-.03.44-.08.61-.05.17-.12.32-.21.43s-.2.2-.32.25-.26.08-.4.08-.28-.03-.4-.08a.96.96 0 0 1-.32-.25c-.09-.11-.16-.26-.21-.43-.05-.17-.07-.38-.07-.61s.03-.44.07-.61c.05-.17.12-.32.21-.43.09-.11.19-.2.32-.25.12-.05.25-.08.4-.08s.28.03.4.08c.12.06.23.14.32.25.09.11.16.26.21.43.05.17.08.38.08.61Zm-.59 0c0-.19-.01-.34-.03-.46s-.05-.21-.09-.28c-.04-.07-.08-.11-.13-.14s-.1-.04-.15-.04-.1.01-.15.04c-.05.03-.09.07-.13.14s-.07.16-.09.28c-.02.12-.03.27-.03.46s.01.34.03.46c.02.12.05.21.09.28.04.07.08.12.13.14.05.03.1.04.15.04s.1-.01.15-.04c.05-.03.09-.07.13-.14.04-.07.07-.16.09-.28.02-.12.03-.27.03-.46Zm.74-1.16c0-.06.01-.12.04-.18.02-.06.06-.11.1-.15a.56.56 0 0 1 .15-.1c.06-.02.12-.04.19-.04s.13.01.19.04c.06.02.11.06.15.1.04.04.08.09.1.15.02.06.04.12.04.18s-.01.12-.04.18c-.02.06-.06.1-.1.15-.04.04-.09.07-.15.1s-.12.04-.19.04-.13-.01-.19-.04-.11-.06-.15-.1a.396.396 0 0 1-.1-.15c-.02-.06-.04-.11-.04-.18Zm.28 0s0 .06.01.08.02.05.04.06c.02.02.04.03.06.04.02.01.05.02.08.02s.06 0 .08-.02a.21.21 0 0 0 .06-.04c.02-.02.03-.04.04-.06 0-.02.01-.05.01-.08s0-.06-.01-.08a.161.161 0 0 0-.04-.07c-.02-.02-.04-.03-.06-.04-.02-.01-.05-.02-.08-.02s-.05 0-.08.02c-.02.01-.04.03-.06.04-.02.02-.03.04-.04.07 0 .03-.01.05-.01.08Zm.64 1.1v.67c1.41.48 2.26 1.17 2.26 1.87 0 1.35-2.96 2.5-6.46 2.5h-.29l.83-1.08c.09-.16.02-.35-.15-.43-.17-.08-.39-.02-.48.14l-1.15 1.52s0 .02-.01.03c0 0 0 .02-.01.02v.18c0 .01 0 .02.01.03v.02l1.32 1.56c.06.11.19.17.31.17.05 0 .11-.01.16-.04.17-.08.24-.27.15-.43l-.97-1.07h.27c4.02 0 7.17-1.37 7.17-3.13 0-1.03-1.11-1.96-2.96-2.54Zm-7.78 4.6C4.64 9.3 3.54 8.51 3.54 7.71c0-.73.88-1.38 2.24-1.83v-.67C4 5.76 2.84 6.65 2.84 7.7c0 1.11 1.27 2.11 3.38 2.67.03 0 .07.01.1.01.15 0 .29-.09.34-.23.06-.17-.05-.34-.24-.39Z" style="fill:#fff"/></svg>