<svg xmlns="http://www.w3.org/2000/svg" width="23.543" height="23.73" viewBox="0 0 23.543 23.73">
  <path id="ge-star-01" d="M23.385,12.476a.257.257,0,0,0-.343.062l-.094.094a1.188,1.188,0,0,1-1.217.374c-.936-.187-1.623-1.155-2.247-1.747a3.559,3.559,0,0,0-3.4-1.311l.062.062-.25-.062H15.8V9.917h-.031c-.437-.094-.593-.031-.718.094l-.125.187a2.4,2.4,0,0,1-.593.655,1,1,0,0,1-.936,0l.125.187c.468.593,1.155.343,1.654.062l.062-.031a1.827,1.827,0,0,1,1.5-.125,2.163,2.163,0,0,1,1.155,1.217l.031.062-.187.125-.062-.062a1.741,1.741,0,0,0-2-.312,1.862,1.862,0,0,1-1.779.156,1.076,1.076,0,0,1-.374-.374,1.725,1.725,0,0,0,.031.281.806.806,0,0,0,.374.624s.218.062.25.062a2.117,2.117,0,0,1,.78.281h0a.931.931,0,0,1,.374.749,1.666,1.666,0,0,1-.156.624l-.187.343-.062-.25-.031-.125c-.094-.437-.187-.562-.374-.624l-.187-.062a1.5,1.5,0,0,1-.842-.312.931.931,0,0,1-.374-.749,1.666,1.666,0,0,1,.156-.624l.062-.125.094-.218a1.283,1.283,0,0,1-.156-.562v-.125l-.031-.218a1.268,1.268,0,0,1-.312-.281l-.281-.343.437.125a.8.8,0,0,0,.718-.125l.125-.187c.156-.218.343-.53.562-.624a1.037,1.037,0,0,1,1.342.343l.031.031a3.768,3.768,0,0,1,2.059-1.779,5.38,5.38,0,0,0,2.527-1.966,2.926,2.926,0,0,0,.5-1.747c-.031-.187-.187-.406-.406-.343a.31.31,0,0,0-.218.281v.125a1.193,1.193,0,0,1-.593,1.123c-.78.53-1.966.343-2.839.374A3.7,3.7,0,0,0,13.4,7.484a3.7,3.7,0,0,1,.125-2.933,5.467,5.467,0,0,0,.406-3.183,2.931,2.931,0,0,0-.9-1.591.359.359,0,0,0-.53.031.257.257,0,0,0,.062.343l.094.094a1.188,1.188,0,0,1,.374,1.217c-.187.936-1.155,1.654-1.747,2.278A3.583,3.583,0,0,0,10,7.109l.031-.031A.311.311,0,0,1,10,7.2c0,.062.031.156.031.218C10,7.421,10,7.39,9.968,7.39v.031c-.094.437-.031.593.094.718l.156.125c.218.156.562.374.655.593a.933.933,0,0,1,0,.9l.187-.125c.593-.468.312-1.155.062-1.654l-.031-.062a1.827,1.827,0,0,1-.125-1.5,2.163,2.163,0,0,1,1.217-1.155l.062-.031.125.187-.062.062a1.745,1.745,0,0,0-.312,2,1.862,1.862,0,0,1,.156,1.779,1.076,1.076,0,0,1-.374.374,1.372,1.372,0,0,1,.281-.031s.5-.062.624-.374l.062-.187V8.981a1.93,1.93,0,0,1,.281-.78A1.07,1.07,0,0,1,14.4,7.983l.312.187-.25.062-.094.031c-.437.094-.562.187-.624.343l-.031.218a1.825,1.825,0,0,1-.312.842,1.07,1.07,0,0,1-1.373.218l-.312-.156a3.681,3.681,0,0,1-.562.187l-.343.031a1.268,1.268,0,0,1-.281.312l-.343.312.094-.312.031-.125c0-.031.125-.5-.125-.718L10,9.293c-.218-.156-.53-.343-.624-.562A1.03,1.03,0,0,1,9.718,7.39l.031-.031a3.71,3.71,0,0,1-1.56-2A5.38,5.38,0,0,0,6.223,2.834a2.926,2.926,0,0,0-1.747-.5c-.187.031-.406.187-.343.406.031.125.094.187.281.218h.125a1.193,1.193,0,0,1,1.123.593c.53.78.343,1.966.374,2.839A3.616,3.616,0,0,0,7.784,9.886,3.576,3.576,0,0,1,4.85,9.73a5.373,5.373,0,0,0-3.183-.437,2.883,2.883,0,0,0-1.591.874.359.359,0,0,0,.031.53.257.257,0,0,0,.343-.062l.094-.094a1.253,1.253,0,0,1,1.217-.374c.936.187,1.623,1.186,2.247,1.747a3.532,3.532,0,0,0,3.37,1.311l-.062-.062.25.031a.188.188,0,0,0,.125-.031v.062h0c.437.094.593.031.718-.094l.125-.187c.156-.218.374-.562.593-.655a1,1,0,0,1,.936,0,1.459,1.459,0,0,0-.156-.187c-.53-.686-1.373-.218-1.654-.062l-.062.031a1.655,1.655,0,0,1-1.467.125,2.163,2.163,0,0,1-1.155-1.217l-.031-.062.125-.094.062-.031.062.062a1.729,1.729,0,0,0,2,.312,1.953,1.953,0,0,1,1.779-.156,1.076,1.076,0,0,1,.374.374,1.725,1.725,0,0,0-.031-.281s-.062-.5-.374-.624l-.218-.062H9.281a1.93,1.93,0,0,1-.78-.281h0a.931.931,0,0,1-.374-.749,1.666,1.666,0,0,1,.156-.624l.031-.094.125-.25.094.374c.094.437.187.562.343.624l.218.031a1.965,1.965,0,0,1,.842.312,1.07,1.07,0,0,1,.218,1.373L10,11.446a1.283,1.283,0,0,1,.156.562l.031.343a1.268,1.268,0,0,1,.312.281l.281.343-.437-.125c-.062,0-.5-.125-.718.125l-.125.156-.031.062c-.156.218-.343.53-.562.624a1.037,1.037,0,0,1-1.342-.343,3.6,3.6,0,0,1-2.059,1.747,5.38,5.38,0,0,0-2.527,1.966,4.715,4.715,0,0,0-.406.9c-.094.343-.281,1.311.437,1.092.031,0,.062-.031.094-.062a.109.109,0,0,1,.031-.062,2.231,2.231,0,0,1,.094-.78,1.24,1.24,0,0,1,.5-.562c.78-.53,1.966-.343,2.839-.374A3.642,3.642,0,0,0,10.061,15.6a3.7,3.7,0,0,1-.125,2.933,5.758,5.758,0,0,0-.406,3.183,2.931,2.931,0,0,0,.9,1.591.359.359,0,0,0,.53-.031.257.257,0,0,0-.062-.343l-.094-.094a1.188,1.188,0,0,1-.374-1.217c.187-.936,1.155-1.654,1.747-2.278a3.667,3.667,0,0,0,1.279-3.4L13.369,16l.062-.25v-.094h.031v-.031c.094-.437.031-.593-.094-.718,0,0-.187-.125-.156-.125a2.068,2.068,0,0,1-.655-.593,1,1,0,0,1,0-.936l-.094.062-.094.062c-.593.468-.312,1.155-.062,1.654l.031.062a1.974,1.974,0,0,1,.156,1.5,2.578,2.578,0,0,1-1.217,1.186l-.062.031-.25-.25.062-.062a1.741,1.741,0,0,0,.312-2,1.953,1.953,0,0,1-.156-1.779,1.076,1.076,0,0,1,.374-.374,1.725,1.725,0,0,0-.281.031s-.5.062-.624.374c0,0-.062.218-.062.25a1.93,1.93,0,0,1-.281.78A1.07,1.07,0,0,1,8.938,15l-.343-.156.374-.062c.437-.094.562-.187.624-.374l.062-.187a1.965,1.965,0,0,1,.312-.842,1.07,1.07,0,0,1,1.373-.218l.312.156a1.283,1.283,0,0,1,.562-.156h.125l.218-.031a1.268,1.268,0,0,1,.281-.312l.094-.094.25-.218-.125.437a.839.839,0,0,0,.125.718l.187.156c.218.156.53.343.624.562a1.03,1.03,0,0,1-.343,1.342,3.67,3.67,0,0,1,1.716,2.059,5.552,5.552,0,0,0,1.966,2.559,2.926,2.926,0,0,0,1.747.5c.187-.031.406-.187.343-.406-.031-.125-.094-.187-.281-.218h-.125a1.193,1.193,0,0,1-1.123-.593c-.53-.78-.343-1.966-.374-2.839a3.616,3.616,0,0,0-1.747-3.495,3.576,3.576,0,0,1,2.933.156,4.947,4.947,0,0,0,3.12.437,2.883,2.883,0,0,0,1.591-.874A.359.359,0,0,0,23.385,12.476Z" transform="translate(0.025 0.325)" fill="#6e6e6e"/>
</svg>
