<?xml version="1.0" encoding="utf-8"?>
<!-- Generator: Adobe Illustrator 25.0.1, SVG Export Plug-In . SVG Version: 6.00 Build 0)  -->
<svg version="1.1" id="Layer_1" xmlns="http://www.w3.org/2000/svg" xmlns:xlink="http://www.w3.org/1999/xlink" x="0px" y="0px"
	 viewBox="0 0 24 35.4" style="enable-background:new 0 0 24 35.4;" xml:space="preserve">
<path d="M24,0.5h-2.1c-1-0.4-2.1-0.5-3.1-0.5c-2.6,0-6,1.2-6.4,7.4h-0.1c-3.7,0.1-7,2.2-8.7,5.5c-1.8,3.2-3,4.4-3.6,4.8
	c0.6,0.3,1.8,1.6,3.5,4.9c1.6,3.2,4.8,5.2,8.3,5.2c0.2,0,0.3,0,0.5,0c0.3,6.5,4.3,7.6,6.9,7.6c0.8,0,1.6-0.1,2.4-0.3H24V0.5z"/>
</svg>
