<?xml version="1.0" encoding="utf-8"?>
<!-- Generator: Adobe Illustrator 25.0.1, SVG Export Plug-In . SVG Version: 6.00 Build 0)  -->
<svg version="1.1" id="Layer_1" xmlns="http://www.w3.org/2000/svg" xmlns:xlink="http://www.w3.org/1999/xlink" x="0px" y="0px"
	 viewBox="0 0 24.1 35.4" style="enable-background:new 0 0 24.1 35.4;" xml:space="preserve">
<path d="M0,34.9h2.1c1,0.4,2.1,0.5,3.1,0.5c2.6,0,6-1.2,6.4-7.4h0.1c3.7-0.1,7-2.2,8.7-5.5c1.8-3.2,3-4.5,3.6-4.8
	c-0.6-0.3-1.8-1.6-3.5-4.9c-1.6-3.2-4.8-5.2-8.3-5.2c-0.2,0-0.3,0-0.5,0C11.5,1.1,7.5,0,4.8,0C4,0,3.2,0.1,2.4,0.3H0V34.9z"/>
</svg>
