<svg id="Layer_1" data-name="Layer 1" xmlns="http://www.w3.org/2000/svg" viewBox="0 0 40 40"><defs><style>.cls-1{fill:#414042;}</style></defs><path class="cls-1" d="M31.25,38.63H8.92a6.18,6.18,0,0,1-6.18-6.18V9.59a1.4,1.4,0,0,1,1.4-1.4H36a1.4,1.4,0,0,1,1.4,1.4V32.45A6.18,6.18,0,0,1,31.25,38.63ZM5.54,11V32.45a3.38,3.38,0,0,0,3.38,3.38H31.25a3.38,3.38,0,0,0,3.37-3.38V11Z"/><path class="cls-1" d="M28.13,11a1.4,1.4,0,0,1-1.4-1.4,6.65,6.65,0,0,0-13.3,0,1.4,1.4,0,0,1-2.8,0,9.45,9.45,0,0,1,18.9,0A1.4,1.4,0,0,1,28.13,11Z"/></svg>