<?xml version="1.0" encoding="UTF-8"?><svg id="Layer_1" xmlns="http://www.w3.org/2000/svg" viewBox="0 0 20 20"><defs><style>.cls-1{fill:#4c4c4d;stroke-width:0px;}</style></defs><path class="cls-1" d="m3.05,16.53s0,0,0,0c0,0,.01.01.02.02,1.73,1.83,4.17,2.98,6.88,2.99,0,0,0,0,.01,0,0,0,0,0,0,0,.01,0,.02,0,.03,0,.01,0,.02,0,.03,0,0,0,0,0,0,0,0,0,0,0,.01,0,2.71-.02,5.15-1.16,6.88-2.99,0,0,.01,0,.02-.02,0,0,0,0,0,0,1.61-1.71,2.59-4.01,2.59-6.53s-.99-4.83-2.6-6.53c0,0,0,0,0,0,0,0-.01-.01-.02-.02C15.19,1.6,12.73.45,10,.45c-2.73,0-5.18,1.15-6.93,2.99,0,0-.02.01-.03.02,0,0,0,0,0,0C1.44,5.18.45,7.47.45,10s.99,4.83,2.6,6.53h0Zm.3-12.46c.7.5,1.44.91,2.22,1.24-.62,1.35-.97,2.83-1.01,4.37H1.1c.08-2.15.91-4.1,2.25-5.6h0Zm15.56,5.61h-3.46c-.04-1.54-.39-3.02-1.01-4.37.78-.33,1.52-.74,2.21-1.24,1.34,1.5,2.18,3.46,2.25,5.61h0Zm-2.25,6.24c-.7-.5-1.44-.91-2.22-1.24.62-1.35.97-2.83,1.01-4.36h3.46c-.08,2.15-.91,4.1-2.25,5.61h0Zm-6.33-1.48c1.12.03,2.2.23,3.24.58-.77,1.42-1.87,2.67-3.24,3.63v-4.22Zm0-.64v-3.48h4.49c-.04,1.46-.38,2.86-.97,4.14-1.12-.4-2.31-.62-3.52-.65h0Zm0-4.12v-3.48c1.22-.03,2.4-.25,3.52-.65.59,1.28.92,2.68.97,4.14h-4.49,0Zm0-4.13V1.34c1.37.96,2.47,2.21,3.24,3.63-1.03.36-2.12.55-3.24.59h0Zm-.64,0c-1.12-.03-2.2-.23-3.24-.59.77-1.43,1.87-2.67,3.24-3.63v4.22Zm0,.64v3.48h-4.49c.04-1.46.38-2.86.97-4.14,1.12.4,2.31.62,3.52.65h0Zm0,4.12v3.48c-1.22.03-2.4.25-3.52.65-.59-1.28-.92-2.68-.97-4.14h4.49Zm0,4.13v4.22c-1.37-.96-2.47-2.21-3.24-3.63,1.03-.36,2.12-.55,3.24-.59Zm-.83,4.39c-1.95-.25-3.71-1.14-5.06-2.44.65-.45,1.33-.84,2.05-1.14.73,1.38,1.75,2.6,3.01,3.58h0Zm5.3-3.58c.72.3,1.4.68,2.05,1.14-1.35,1.31-3.1,2.19-5.06,2.44,1.26-.98,2.28-2.2,3.01-3.58h0Zm0-10.52c-.73-1.38-1.75-2.6-3-3.58,1.95.25,3.71,1.14,5.05,2.44-.65.45-1.33.84-2.05,1.13h0Zm-8.31,0c-.72-.3-1.4-.68-2.05-1.13,1.35-1.31,3.1-2.19,5.05-2.44-1.26.98-2.28,2.2-3,3.58h0Zm-1.29,5.58c.04,1.54.39,3.01,1.01,4.37-.78.33-1.52.74-2.22,1.24-1.34-1.5-2.18-3.46-2.25-5.61h3.46Z"/></svg>