<svg id="Layer_1" data-name="Layer 1" xmlns="http://www.w3.org/2000/svg" xmlns:xlink="http://www.w3.org/1999/xlink" viewBox="0 0 40 40"><defs><style>.cls-1{fill:none;}.cls-2{clip-path:url(#clip-path);}.cls-3{fill:#ab0854;}</style><clipPath id="clip-path"><rect class="cls-1" x="4.4" y="9.4" width="31.2" height="21.2"/></clipPath></defs><g class="cls-2"><path class="cls-3" d="M32.8,10.1,20.2,19.5a.3.3,0,0,1-.4,0L7.2,10.1a.4.4,0,0,1,.2-.7H32.6a.4.4,0,0,1,.2.7"/><path class="cls-3" d="M35.6,29.5a1.2,1.2,0,0,1-1.2,1.1H5.6a1.1,1.1,0,0,1-1.2-1V10.8l5.1,3.8L19,21.7a1.4,1.4,0,0,0,1.9,0L35.3,11c0-.1.2-.3.2-.2s.1.2.1.3c.1,4.5,0,18.3,0,18.3Z"/></g></svg>