<svg id="Layer_1" data-name="Layer 1" xmlns="http://www.w3.org/2000/svg" viewBox="0 0 17.12 21.9"><defs><style>.cls-1{fill:#808285;}</style></defs><title>Icons_Library</title><path class="cls-1" d="M20.08,10C14,10,11,14.29,11,17.86c0,2.16.83,4.09,2.6,4.81a.6.6,0,0,0,.22,0,.43.43,0,0,0,.42-.36l.26-1a.61.61,0,0,0-.18-.7,3.6,3.6,0,0,1-.84-2.47,6,6,0,0,1,6.25-6C23.14,12.15,25,14.21,25,17c0,3.63-1.62,6.69-4,6.69a2,2,0,0,1-2-2.42c.38-1.59,1.12-3.31,1.12-4.46a1.69,1.69,0,0,0-1.71-1.89c-1.36,0-2.45,1.39-2.45,3.26a4.78,4.78,0,0,0,.41,2L14.71,27a14,14,0,0,0,0,4.78.16.16,0,0,0,.16.14.17.17,0,0,0,.14-.07,13.51,13.51,0,0,0,2.29-4.12c.15-.56.89-3.46.89-3.46a3.66,3.66,0,0,0,3.1,1.57c4.08,0,6.86-3.69,6.86-8.62,0-3.73-3.19-7.21-8-7.21" transform="translate(-11 -10)"/></svg>