<svg id="Layer_1" data-name="Layer 1" xmlns="http://www.w3.org/2000/svg" viewBox="0 0 40 40"><defs><style>.cls-1{fill:#808285;}</style></defs><title>Icons_Library</title><path class="cls-1" d="M27.36,12.48H25.69a.83.83,0,0,0-.83.83V15a.83.83,0,0,0,.83.83h1.67a.83.83,0,0,0,.83-.83V13.3a.83.83,0,0,0-.83-.83" transform="translate(-9 -10)"/><path class="cls-1" d="M19.85,17.6a3.18,3.18,0,0,0-1.65.46,1.63,1.63,0,0,1,.47-.08,1.6,1.6,0,1,1-1.61,1.6,1.63,1.63,0,0,1,.08-.47,3.1,3.1,0,0,0-.47,1.63,3.18,3.18,0,1,0,3.18-3.15" transform="translate(-9 -10)"/><path class="cls-1" d="M24.49,18.9l.06.17-.06-.17" transform="translate(-9 -10)"/><path class="cls-1" d="M24.64,19.33c0,.07,0,.15.06.23,0-.08,0-.15-.06-.23" transform="translate(-9 -10)"/><path class="cls-1" d="M14.89,20.08c0-.1,0-.2,0-.3,0,.1,0,.2,0,.3" transform="translate(-9 -10)"/><path class="cls-1" d="M15,19.57c0-.08,0-.16.07-.25,0,.08,0,.16-.07.25" transform="translate(-9 -10)"/><path class="cls-1" d="M14.84,20.74a4.67,4.67,0,0,1,0-.49,4.65,4.65,0,0,0,0,.49" transform="translate(-9 -10)"/><path class="cls-1" d="M24.76,19.78c0,.1,0,.2,0,.29,0-.1,0-.2,0-.29" transform="translate(-9 -10)"/><path class="cls-1" d="M24.31,18.5l.06.12-.06-.12" transform="translate(-9 -10)"/><path class="cls-1" d="M24.83,20.25c0,.16,0,.32,0,.49,0-.17,0-.33,0-.49" transform="translate(-9 -10)"/><path class="cls-1" d="M23.84,17.76l0,0,0,0" transform="translate(-9 -10)"/><path class="cls-1" d="M15.8,17.84l.1-.13-.1.13" transform="translate(-9 -10)"/><path class="cls-1" d="M15.54,18.23l.09-.14-.09.14" transform="translate(-9 -10)"/><path class="cls-1" d="M24.09,18.12l0,.08,0-.08" transform="translate(-9 -10)"/><path class="cls-1" d="M15.32,18.65l.08-.17-.08.17" transform="translate(-9 -10)"/><path class="cls-1" d="M15.13,19.09l.07-.2-.07.2" transform="translate(-9 -10)"/><path class="cls-1" d="M29,17.44h-3.4a6.7,6.7,0,0,0-11.55,0h-3.4V14a2.39,2.39,0,0,1,2.39-2.37H26.63A2.39,2.39,0,0,1,29,14v3.41ZM19.85,25.7a5,5,0,0,1-5-5c0-.17,0-.33,0-.49s0-.11,0-.17,0-.2,0-.3,0-.14,0-.21,0-.16.06-.24l.08-.23.07-.2.11-.25.08-.17.14-.25.09-.14.17-.25.1-.13.19-.23a5,5,0,0,1,7.5,0l.26.32,0,0,.22.32,0,.08.17.31.06.12.13.29.06.17.09.26c0,.07,0,.15.06.23s0,.15.05.22,0,.2,0,.29,0,.12,0,.18,0,.32,0,.49a5,5,0,0,1-5,5M26.63,10H13.07A4,4,0,0,0,9,14V27.46a4,4,0,0,0,4.07,4H26.63a4,4,0,0,0,4.07-4V14a4,4,0,0,0-4.07-4" transform="translate(-9 -10)"/></svg>