<!-- Generated by IcoMoon.io -->
<svg version="1.1" xmlns="http://www.w3.org/2000/svg" width="1024" height="1024" viewBox="0 0 1024 1024">
<title></title>
<g id="icomoon-ignore">
</g>
<path fill="#000" d="M524.488 117.385c-144.833 0-262.244 117.411-262.244 262.244v0c0 57.444 37.463 152.351 114.888 289.717 54.946 97.405 107.395 177.327 109.893 179.824l39.961 59.941 39.961-59.941c2.498-2.498 54.946-84.917 109.893-179.824 77.424-137.366 114.888-232.273 114.888-289.717-4.147-144.881-121.926-260.913-267.11-262.243l-0.129-0.001zM524.488 492.020c-67.589 0-122.38-54.792-122.38-122.38s54.792-122.38 122.38-122.38c67.589 0 122.38 54.792 122.38 122.38v0c-0.142 67.532-54.849 122.239-122.367 122.38h-0.013z"></path>
</svg>
