<?xml version="1.0" encoding="UTF-8"?><svg id="Layer_1" xmlns="http://www.w3.org/2000/svg" viewBox="0 0 20 20"><defs><style>.cls-1{fill:#4c4c4d;stroke-width:0px;}</style></defs><path class="cls-1" d="m15.59,6.87c-.07,0-.15-.03-.21-.09-.11-.11-.11-.3,0-.42l.6-.6c.07-.07.11-.17.11-.27s-.04-.2-.11-.27l-1.2-1.2c-.07-.07-.17-.11-.27-.11s-.2.04-.27.11l-.6.6c-.11.11-.3.11-.42,0s-.11-.3,0-.42l.6-.6c.18-.18.43-.28.69-.28s.51.1.69.28l1.2,1.2c.18.18.28.43.28.69s-.1.51-.28.69l-.61.6c-.06.06-.13.09-.21.09h0Z"/><path class="cls-1" d="m3.61,16.68c-.08,0-.15-.03-.21-.09-.07-.07-.1-.18-.08-.28l.64-2.68v-.04c-.01-.09.02-.17.08-.24l7.99-7.99c.11-.11.3-.11.42,0l2.17,2.17c.11.11.11.3,0,.42l-7.99,8c-.06.06-.15.09-.24.08h-.04s-2.68.64-2.68.64c-.02,0-.04,0-.07,0h0Zm.94-2.99s0,.03,0,.04l-.54,2.26,2.26-.54s.03,0,.04,0l7.69-7.69-1.75-1.75-7.69,7.69Z"/></svg>