<svg id="Layer_1" data-name="Layer 1" xmlns="http://www.w3.org/2000/svg" xmlns:xlink="http://www.w3.org/1999/xlink" viewBox="0 0 40 40"><defs><style>.cls-1{fill:none;}.cls-2{clip-path:url(#clip-path);}.cls-3{fill:#ab0854;}</style><clipPath id="clip-path"><rect class="cls-1" x="5.2" y="6.3" width="29.7" height="27.45"/></clipPath></defs><g class="cls-2"><path class="cls-3" d="M33.3,25.7c-.7-.3-4.3-2.1-5-2.3s-1.1-.4-1.6.3-1.9,2.4-2.3,2.9-.9.5-1.6.2a23.6,23.6,0,0,1-5.9-3.6,22.3,22.3,0,0,1-4-5.1c-.5-.7-.1-1.1.3-1.4l1.1-1.3.3-.3a3.6,3.6,0,0,1,.4-.9,1.5,1.5,0,0,0,0-1.3c-.2-.3-1.7-3.9-2.3-5.4s-1.2-1.2-1.6-1.2H9.7a2.9,2.9,0,0,0-2,.9,8,8,0,0,0-2.5,6,10.1,10.1,0,0,0,.3,2.5,18.2,18.2,0,0,0,2.6,5c.4.5,5.1,8.1,12.5,11s7.4,1.9,8.8,1.8,4.3-1.8,4.9-3.5a5.7,5.7,0,0,0,.4-3.4c-.1-.3-.6-.5-1.4-.9"/></g></svg>