<?xml version="1.0" encoding="UTF-8"?><svg id="Layer_1" xmlns="http://www.w3.org/2000/svg" viewBox="0 0 20 20"><defs><style>.cls-1{fill:#fff;}.cls-1,.cls-2{isolation:isolate;opacity:.9;}.cls-1,.cls-3{stroke-width:0px;}.cls-2{fill:none;stroke:#6d9a98;stroke-width:.45px;}.cls-3{fill:#6d9a98;}</style></defs><g id="PLP_HelloAR_Mobile"><path id="Path_390" class="cls-1" d="m10,.67c5.15,0,9.33,4.18,9.33,9.33s-4.18,9.33-9.33,9.33S.67,15.15.67,10,4.85.67,10,.67Z"/><g id="Group_1618"><g id="Group_1616"><path id="Path_384" class="cls-3" d="m7.83,6.47c.12,0,.24.02.35.06.09.03.18.08.26.15.07.06.12.14.16.22.04.08.05.17.05.26,0,.07,0,.15-.02.22-.01.06-.04.12-.07.17-.03.05-.07.09-.12.12-.05.03-.11.06-.17.08.27.07.45.32.44.6,0,.13-.02.25-.07.37-.05.1-.12.19-.2.26-.09.07-.19.12-.3.16-.11.03-.23.05-.35.05-.11,0-.23-.01-.34-.04-.09-.03-.18-.07-.26-.13-.08-.06-.15-.14-.2-.22-.06-.1-.11-.21-.15-.32l.25-.1s.04-.02.06-.02c.02,0,.04,0,.06,0,.04,0,.07,0,.1.02.03.01.06.04.07.07.04.08.1.16.17.22.06.05.14.07.22.07.06,0,.11,0,.16-.03.09-.04.15-.11.19-.2.01-.04.02-.08.02-.12,0-.05,0-.1-.01-.15,0-.05-.03-.09-.07-.12-.05-.04-.1-.06-.16-.07-.1-.02-.21-.03-.31-.03v-.39c.09,0,.18,0,.27-.03.06-.01.11-.04.16-.07.04-.03.06-.06.07-.11.01-.05.02-.09.02-.14,0-.09-.02-.17-.07-.24-.06-.06-.14-.09-.23-.08-.04,0-.08,0-.12.02-.03.01-.07.03-.1.05-.03.02-.05.05-.07.07-.02.03-.04.06-.05.09-.01.05-.04.09-.07.12-.03.03-.08.04-.12.04h-.04s-.03,0-.04,0l-.3-.05c.02-.12.05-.24.11-.34.1-.19.28-.33.49-.39.11-.03.23-.05.34-.05Z"/><path id="Path_385" class="cls-3" d="m10.14,7.47c.1,0,.19.02.28.05.09.03.18.08.25.15.08.07.14.15.18.25.05.11.07.23.07.35,0,.12-.02.24-.07.35-.05.11-.11.21-.19.29-.09.09-.19.15-.3.2-.13.05-.26.08-.4.07-.14,0-.27-.02-.4-.07-.11-.04-.21-.11-.3-.2-.08-.09-.15-.19-.19-.3-.04-.12-.07-.25-.06-.38,0-.13.03-.27.07-.39.06-.14.13-.28.22-.4l.6-.8s.07-.07.12-.09c.06-.03.12-.04.18-.04h.5l-.79.93-.03.04-.03.04s.09-.03.13-.04c.05,0,.1-.01.15,0Zm-.59.83c0,.06,0,.12.02.18.02.05.04.1.07.14.03.04.08.07.12.09.06.02.12.03.18.03.06,0,.11-.01.16-.03.05-.02.09-.05.13-.09.04-.04.07-.08.09-.13.02-.05.03-.11.03-.17,0-.06,0-.12-.03-.18-.02-.05-.05-.1-.08-.14-.04-.04-.08-.07-.13-.08-.05-.02-.11-.03-.17-.03-.05,0-.11,0-.16.03-.05.02-.09.05-.12.09-.03.04-.06.09-.08.14-.02.06-.03.12-.03.18Z"/><path id="Path_386" class="cls-3" d="m13.12,7.82c0,.2-.02.41-.07.6-.04.15-.11.3-.21.42-.08.11-.19.19-.31.25-.25.11-.53.11-.78,0-.12-.06-.23-.14-.31-.25-.1-.13-.16-.27-.21-.42-.05-.2-.08-.4-.07-.6,0-.2.02-.4.07-.6.04-.15.11-.3.21-.42.08-.11.19-.19.31-.25.25-.11.53-.11.78,0,.12.06.23.14.31.25.1.13.17.27.21.42.05.19.08.4.07.6Zm-.58,0c0-.15,0-.3-.04-.45-.02-.1-.05-.19-.09-.28-.03-.06-.08-.1-.13-.14-.05-.02-.1-.04-.15-.04-.05,0-.1.01-.15.04-.06.03-.1.08-.13.14-.04.09-.07.18-.09.28-.03.15-.04.3-.03.45,0,.15,0,.3.03.45.01.1.04.19.09.27.03.06.07.11.13.14.05.03.1.04.15.04.05,0,.1-.01.15-.04.06-.03.1-.08.13-.14.04-.09.08-.18.09-.27.03-.15.04-.3.04-.45Z"/><path id="Path_387" class="cls-3" d="m13.26,6.69c0-.06.01-.12.04-.18.02-.05.06-.1.1-.14.09-.09.21-.13.33-.13.12,0,.24.05.33.13.04.04.08.09.1.14.02.06.04.12.04.18,0,.06-.01.12-.04.17-.02.05-.06.1-.1.14-.04.04-.09.07-.15.1-.12.05-.25.05-.37,0-.06-.02-.11-.05-.15-.1-.04-.04-.07-.09-.1-.14-.02-.06-.03-.11-.03-.17Zm.27,0s0,.05.01.08c0,.02.02.04.04.06.02.02.04.03.06.04.05.02.1.02.15,0,.02,0,.04-.02.06-.04.02-.02.03-.04.04-.06,0-.02.01-.05.01-.08,0-.03,0-.05-.01-.08-.02-.05-.05-.09-.1-.11-.05-.02-.1-.02-.15,0-.05.02-.08.06-.1.11,0,.03-.01.05-.01.08h0Z"/></g><g id="Group_1617"><path id="Path_388" class="cls-3" d="m14.17,7.76v.65c1.38.47,2.22,1.15,2.22,1.84,0,1.33-2.9,2.45-6.35,2.45h-.28l.81-1.06c.08-.14.02-.33-.12-.4,0,0-.02,0-.03-.01-.17-.08-.37-.02-.47.13l-1.13,1.49h0s0,.02-.01.03v.02h0s0,.02,0,.03h0s0,.02,0,.03h0v.03h0s0,.02,0,.03h0s0,.02,0,.04v.02h0s0,.02.01.03v.02s1.3,1.53,1.3,1.53c.07.11.18.17.31.17.05,0,.11-.01.16-.04.15-.06.23-.24.16-.39,0-.01,0-.02-.01-.03l-.96-1.05h.26c3.95,0,7.04-1.35,7.04-3.07h0c0-1-1.08-1.91-2.91-2.48Z"/><path id="Path_389" class="cls-3" d="m6.52,12.28h0c-1.74-.46-2.83-1.24-2.83-2.02,0-.72.87-1.35,2.2-1.79v-.66c-1.75.54-2.89,1.42-2.89,2.45,0,1.09,1.24,2.07,3.32,2.62.03,0,.07.01.1.01.15,0,.28-.09.33-.22.05-.16-.05-.33-.21-.38,0,0-.02,0-.02,0Z"/></g></g><path id="Path_391" class="cls-2" d="m10,.67c5.15,0,9.33,4.18,9.33,9.33s-4.18,9.33-9.33,9.33S.67,15.15.67,10,4.85.67,10,.67Z"/></g></svg>