<?xml version="1.0" encoding="UTF-8"?><svg id="Layer_1" xmlns="http://www.w3.org/2000/svg" viewBox="0 0 20 20"><defs><style>.cls-1{fill:#987e56;stroke-width:0px;}</style></defs><path id="Path_48" class="cls-1" d="m10,13.66c1.95-1.17,4.82-3.37,3.96-5.84-.25-.75-.89-1.31-1.67-1.46-.85-.08-1.7.24-2.29.86-.59-.62-1.44-.93-2.29-.86-.78.14-1.42.7-1.67,1.46-.85,2.48,2.02,4.67,3.96,5.84Z"/><path class="cls-1" d="m10,14.09l-.19-.11c-2.37-1.43-5-3.68-4.11-6.27.28-.88,1.03-1.54,1.95-1.7.88-.08,1.71.18,2.35.72.65-.54,1.47-.79,2.32-.73.95.17,1.69.83,1.98,1.71.71,2.03-.75,4.26-4.12,6.27l-.19.11Zm-2.03-7.37c-.07,0-.15,0-.22.01-.62.11-1.15.57-1.35,1.21-.75,2.17,1.85,4.21,3.61,5.3,1.76-1.08,4.37-3.12,3.61-5.3-.21-.63-.74-1.1-1.39-1.22-.71-.06-1.44.21-1.96.75l-.26.27-.26-.27c-.47-.49-1.1-.76-1.77-.76Z"/></svg>