<?xml version="1.0" encoding="UTF-8"?><svg id="Layer_1" xmlns="http://www.w3.org/2000/svg" viewBox="0 0 20 20"><defs><style>.cls-1{fill:#4c4c4d;stroke-width:0px;}</style></defs><path class="cls-1" d="m12.47,14.35h-4.94c-.8,0-1.46-.65-1.46-1.46v-5.16c0-.14.11-.25.25-.25h7.35c.14,0,.25.11.25.25v5.16c0,.8-.66,1.46-1.46,1.46Zm-5.89-6.37v4.91c0,.52.43.95.95.95h4.94c.52,0,.95-.42.95-.95v-4.91h-6.84Z"/><path class="cls-1" d="m8.15,7.98h0c-.14,0-.25-.12-.25-.26.02-.56.25-1.09.66-1.47.41-.39.95-.6,1.51-.58,1.12.03,2.02.93,2.05,2.05,0,.14-.11.26-.25.26h0c-.14,0-.25-.11-.25-.25-.02-.85-.71-1.53-1.55-1.55-.42.01-.83.14-1.14.44s-.49.69-.5,1.12c0,.14-.12.25-.25.25Z"/></svg>