<svg id="Layer_1" data-name="Layer 1" xmlns="http://www.w3.org/2000/svg" viewBox="0 0 40 40"><title>Icons_Library</title><path d="M20,23c-4.82,0-8.74-4.25-8.74-9.47,0-5,3.59-8.48,8.74-8.48s8.74,3.49,8.74,8.48C28.74,18.76,24.82,23,20,23ZM20,6.8a6.43,6.43,0,0,0-6.83,6.74c0,4.27,3.07,7.74,6.83,7.74s6.83-3.47,6.83-7.74A6.43,6.43,0,0,0,20,6.8Z"/><path d="M20.87,24H19.13c-8,0-13.31,4.19-13.31,10.42a.93.93,0,0,0,1,.9H11.4a.9.9,0,1,0,0-1.79H7.78c.48-4.78,4.8-7.73,11.35-7.73h1.74c6.55,0,10.87,3,11.35,7.73H28.6a.9.9,0,1,0,0,1.79h4.62a.93.93,0,0,0,1-.9C34.18,28.23,28.83,24,20.87,24Z"/></svg>