<svg id="Layer_1" data-name="Layer 1" xmlns="http://www.w3.org/2000/svg" viewBox="0 0 58.5 49.17"><defs><style>.cls-1{fill:none;stroke:#000;stroke-miterlimit:10;stroke-width:0.5px;}</style></defs><path class="cls-1" d="M47.1,32.6c-.2-.2-.5-.2-.6.1v2.8a1.08,1.08,0,0,1-1,1H41.7c-11,.4-11.2,12-11.2,12a13.44,13.44,0,0,1,11.1-6h3.9a1.08,1.08,0,0,1,1,1v2.8a.36.36,0,0,0,.6.2l7-6.2a1,1,0,0,0,0-1.4C54.2,38.9,47.1,32.6,47.1,32.6Z" transform="translate(-0.25 -0.25)"/><path class="cls-1" d="M57.6.5H1.4a1.06,1.06,0,0,0-.9.9V37.6a1,1,0,0,0,.9.9H32.2a13.13,13.13,0,0,1,9.5-4h2.8V32.7A2.39,2.39,0,0,1,46,30.5a2.18,2.18,0,0,1,2.5.7s7.6,6.2,7.8,7.3h1.3a.89.89,0,0,0,.9-.9V1.4A1.06,1.06,0,0,0,57.6.5ZM56.2,4.2,34,24.7a6.53,6.53,0,0,1-9,0L2.8,4.2A1,1,0,0,1,4.2,2.8L26.4,23.3a4.73,4.73,0,0,0,6.3,0L54.9,2.8a1,1,0,0,1,1.4,0A1.06,1.06,0,0,1,56.2,4.2Z" transform="translate(-0.25 -0.25)"/></svg>