<svg id="Layer_1" data-name="Layer 1" xmlns="http://www.w3.org/2000/svg" viewBox="0 0 40 40"><defs><style>.cls-1{fill:#6d6e70;}</style></defs><title>Icons_Library</title><path class="cls-1" d="M11.41,31.23a.27.27,0,0,1-.07.08.15.15,0,0,1-.09,0,.24.24,0,0,1-.14-.06l-.2-.13a1.58,1.58,0,0,0-.29-.13,1.24,1.24,0,0,0-.41-.06,1.21,1.21,0,0,0-.4.06.84.84,0,0,0-.29.17.68.68,0,0,0-.18.25.79.79,0,0,0-.06.31.57.57,0,0,0,.1.35.89.89,0,0,0,.27.24,2.17,2.17,0,0,0,.38.17l.44.15.44.17a1.57,1.57,0,0,1,.38.24,1.12,1.12,0,0,1,.27.36,1.2,1.2,0,0,1,.1.53,1.7,1.7,0,0,1-.11.62,1.43,1.43,0,0,1-.33.5,1.54,1.54,0,0,1-.53.34,1.94,1.94,0,0,1-.71.12,2.17,2.17,0,0,1-.89-.18,2.06,2.06,0,0,1-.68-.48l.2-.32.07-.06.09,0a.28.28,0,0,1,.17.08l.24.17a1.78,1.78,0,0,0,.34.17A1.37,1.37,0,0,0,10,35a1.28,1.28,0,0,0,.43-.07.9.9,0,0,0,.32-.19.81.81,0,0,0,.2-.29,1,1,0,0,0,.07-.37.63.63,0,0,0-.1-.37.83.83,0,0,0-.27-.24,1.91,1.91,0,0,0-.38-.17l-.44-.14-.44-.17A1.44,1.44,0,0,1,9,32.7a1.13,1.13,0,0,1-.27-.38,1.34,1.34,0,0,1-.1-.56,1.34,1.34,0,0,1,.4-1,1.46,1.46,0,0,1,.48-.31,1.77,1.77,0,0,1,.66-.12,2.12,2.12,0,0,1,.77.13,1.77,1.77,0,0,1,.61.38Z"/><path class="cls-1" d="M19.09,33a2.89,2.89,0,0,1-.18,1,2.37,2.37,0,0,1-.5.81,2.26,2.26,0,0,1-.78.53,2.81,2.81,0,0,1-2,0,2.27,2.27,0,0,1-.78-.53,2.38,2.38,0,0,1-.5-.81,3.08,3.08,0,0,1,0-2.07,2.39,2.39,0,0,1,.5-.81,2.26,2.26,0,0,1,.78-.53,2.79,2.79,0,0,1,2,0,2.26,2.26,0,0,1,.78.53,2.38,2.38,0,0,1,.5.81A2.89,2.89,0,0,1,19.09,33Zm-.7,0a2.55,2.55,0,0,0-.13-.83,1.76,1.76,0,0,0-.36-.62,1.55,1.55,0,0,0-.56-.39,2,2,0,0,0-1.47,0,1.57,1.57,0,0,0-.56.39,1.76,1.76,0,0,0-.36.62,2.79,2.79,0,0,0,0,1.66,1.75,1.75,0,0,0,.36.62,1.55,1.55,0,0,0,.56.39,2.06,2.06,0,0,0,1.47,0,1.53,1.53,0,0,0,.56-.39,1.75,1.75,0,0,0,.36-.62A2.53,2.53,0,0,0,18.39,33Z"/><path class="cls-1" d="M22.6,33.37v2.09h-.68v-5h1.42a3.08,3.08,0,0,1,.82.1,1.55,1.55,0,0,1,.57.28,1.12,1.12,0,0,1,.33.44,1.47,1.47,0,0,1,.11.58,1.45,1.45,0,0,1-.08.5,1.32,1.32,0,0,1-.24.42,1.46,1.46,0,0,1-.39.31,1.89,1.89,0,0,1-.52.2.71.71,0,0,1,.22.21l1.46,2H25a.3.3,0,0,1-.27-.14l-1.3-1.79a.38.38,0,0,0-.13-.12.47.47,0,0,0-.21,0Zm0-.49h.71a1.73,1.73,0,0,0,.52-.07,1.06,1.06,0,0,0,.38-.2.84.84,0,0,0,.23-.31,1,1,0,0,0,.08-.4.8.8,0,0,0-.3-.68,1.43,1.43,0,0,0-.88-.23H22.6Z"/><path class="cls-1" d="M31.56,30.45V31H29.94v4.45h-.68V31H27.64v-.57Z"/><path d="M20.75,15.7l-.32-.08V4.91a.43.43,0,1,0-.86,0V15.62l-.32.08a3,3,0,0,0,0,5.8l.32.08v2.15a.43.43,0,1,0,.86,0V21.59l.32-.08a3,3,0,0,0,0-5.8Zm-.75,5a2.14,2.14,0,1,1,2.14-2.14A2.14,2.14,0,0,1,20,20.74Z"/><path d="M12.19,7.14l-.32-.08V4.91a.43.43,0,1,0-.86,0V7.06l-.32.08a3,3,0,0,0,0,5.8L11,13V23.74a.43.43,0,1,0,.86,0V13l.32-.08a3,3,0,0,0,0-5.8Zm-.75,5A2.14,2.14,0,1,1,13.58,10,2.14,2.14,0,0,1,11.44,12.18Z"/><path d="M29.31,7.14,29,7.06V4.91a.43.43,0,1,0-.86,0V7.06l-.32.08a3,3,0,0,0,0,5.8l.32.08V23.74a.43.43,0,1,0,.86,0V13l.32-.08a3,3,0,0,0,0-5.8Zm-.75,5A2.14,2.14,0,1,1,30.7,10,2.14,2.14,0,0,1,28.56,12.18Z"/></svg>