<?xml version="1.0" encoding="UTF-8"?><svg id="a" xmlns="http://www.w3.org/2000/svg" viewBox="0 0 20 20"><defs><style>.b{fill:#181818;}</style></defs><g><path class="b" d="M10.65,16.92c-1.87,0-3.69-.65-5.13-1.84l.46-.55c1.31,1.08,2.97,1.68,4.67,1.68,4.05,0,7.34-3.29,7.34-7.34S14.7,1.52,10.65,1.52,3.31,4.81,3.31,8.86c0,1.06,.22,2.08,.65,3.03l.03,.06-.65,.31-.03-.07c-.48-1.05-.72-2.17-.72-3.33C2.59,4.42,6.2,.8,10.65,.8s8.06,3.62,8.06,8.06-3.62,8.06-8.06,8.06Z"/><path class="b" d="M1.65,16.06c-.06,0-.12-.01-.18-.05-.17-.1-.23-.32-.14-.49l2.02-3.6c.1-.17,.31-.24,.49-.14,.17,.1,.23,.32,.14,.49l-2.02,3.6c-.07,.12-.19,.18-.31,.18Z"/><path class="b" d="M1.65,16.06c-.16,0-.31-.11-.35-.28-.04-.19,.08-.38,.27-.43l4.1-.9c.19-.04,.38,.08,.43,.27,.04,.19-.08,.38-.27,.43l-4.1,.9s-.05,0-.08,0Z"/></g><path class="b" d="M13.57,12.43c-.84,.84-2.97,.07-4.77-1.73s-2.57-3.93-1.73-4.77l.87-.87c.15-.15,.4-.15,.55,0l.89,.89c.15,.15,.15,.4,0,.55l-.6,.6c-.47,.47-.06,1.65,.94,2.65s2.21,1.43,2.68,.96l.6-.6c.15-.15,.4-.15,.55,0l.89,.89c.15,.15,.15,.4,0,.55l-.87,.87Z"/></svg>