<svg id="Layer_1" data-name="Layer 1" xmlns="http://www.w3.org/2000/svg" viewBox="0 0 40 40"><title>Icons_Library</title><path d="M20,33.37l-.48-.26C5.41,25.5,5,17.6,5.45,14.56A8.74,8.74,0,0,1,12.22,7.2,7.88,7.88,0,0,1,20,10.29,7.89,7.89,0,0,1,27.78,7.2a8.74,8.74,0,0,1,6.77,7.37c.47,3,0,10.94-14.08,18.55ZM13.71,9a5.68,5.68,0,0,0-1.09.11,6.76,6.76,0,0,0-5.19,5.73C7,17.46,7.46,24.2,20,31.13,32.54,24.2,33,17.46,32.58,14.86a6.76,6.76,0,0,0-5.19-5.73c-2.54-.5-4.92.74-6.54,3.39L20,13.91l-.85-1.39C17.76,10.25,15.82,9,13.71,9Z"/></svg>