<svg id="Layer_1" data-name="Layer 1" xmlns="http://www.w3.org/2000/svg" viewBox="0 0 43.08 40"><defs><style>.cls-1{fill:#414042;}</style></defs><path class="cls-1" d="M21.54,39.44,20.78,39C1.77,26.7.36,16.12,2.51,9.39,3.63,5.9,6.73,2.1,11.12,1.48A13.12,13.12,0,0,1,21.54,5,13.12,13.12,0,0,1,32,1.48c4.39.62,7.48,4.42,8.6,7.91C42.72,16.12,41.3,26.7,22.3,39ZM12.61,4.17a7.77,7.77,0,0,0-1.09.08c-3.2.46-5.49,3.34-6.34,6C1.75,21,13.6,30.86,21.54,36.11,29.48,30.86,41.33,21,37.9,10.25c-.86-2.66-3.15-5.54-6.34-6-3-.43-6.46,1-9,3.67L21.54,9l-1-1.07A11.28,11.28,0,0,0,12.61,4.17Z"/></svg>