<?xml version="1.0" encoding="UTF-8"?><svg id="Layer_1" xmlns="http://www.w3.org/2000/svg" xmlns:xlink="http://www.w3.org/1999/xlink" viewBox="0 0 20 20"><defs><style>.cls-1{clip-path:url(#clippath);}.cls-2{fill:none;}.cls-2,.cls-3{stroke-width:0px;}.cls-3{fill:#4c4c4d;}</style><clipPath id="clippath"><rect class="cls-2" x="2.4" y="2.4" width="15.19" height="15.19"/></clipPath></defs><g id="Group_1938"><g class="cls-1"><g id="Group_1937"><path id="Path_569" class="cls-3" d="m16.35,6.45c-.18,0-.33-.15-.33-.34,0-.09.04-.17.1-.23l.69-.69c.17-.17.17-.45,0-.62l-1.37-1.37c-.17-.17-.45-.17-.62,0,0,0,0,0,0,0l-.69.69c-.13.13-.34.13-.47,0-.13-.13-.13-.34,0-.47l.69-.69c.43-.43,1.13-.43,1.57,0l1.37,1.37c.43.43.43,1.13,0,1.57,0,0,0,0,0,0l-.69.69c-.06.06-.15.09-.23.09Z"/><path id="Path_570" class="cls-3" d="m2.74,17.6c-.18,0-.33-.15-.33-.33,0-.03,0-.05,0-.08l.73-3.04v-.04c0-.1.03-.2.1-.27L12.32,4.75c.13-.13.34-.13.47,0,0,0,0,0,0,0l2.46,2.46c.13.13.13.34,0,.47l-9.09,9.09c-.07.07-.17.11-.27.1h-.04l-3.04.72s-.05,0-.08,0Zm1.07-3.4s0,.03,0,.05l-.62,2.57,2.57-.61s.03,0,.04,0L14.55,7.44l-1.99-1.99L3.81,14.2Z"/></g></g></g></svg>