<?xml version="1.0" encoding="utf-8"?>
<!-- Generator: Adobe Illustrator 23.0.2, SVG Export Plug-In . SVG Version: 6.00 Build 0)  -->
<svg version="1.1" id="Layer_1" xmlns="http://www.w3.org/2000/svg" xmlns:xlink="http://www.w3.org/1999/xlink" x="0px" y="0px"
	 viewBox="0 0 40 40" style="enable-background:new 0 0 40 40;" xml:space="preserve">
<style type="text/css">
	.st0{fill:#9F236B;}
	.st1{fill:#ACABAE;}
	.st2{fill:#A8A8AA;}
</style>
<g>
	<path class="st0" d="M35.58,21.31c-1.71,1.2-2.31,3.45-1.43,5.34c0.22,0.48,0.2,1.02-0.07,1.48c-0.26,0.46-0.72,0.75-1.25,0.8
		c-2.08,0.19-3.73,1.83-3.91,3.91c-0.05,0.53-0.34,0.98-0.8,1.25c-0.46,0.26-1,0.29-1.48,0.07c-1.89-0.88-4.14-0.28-5.34,1.43
		c-0.61,0.86-2.02,0.87-2.63,0c-0.8-1.15-2.12-1.83-3.52-1.83c-0.63,0-1.24,0.14-1.82,0.4c-0.48,0.22-1.02,0.2-1.48-0.07
		c-0.47-0.27-0.75-0.71-0.8-1.25c-0.18-2.08-1.83-3.72-3.91-3.91c-0.54-0.05-0.98-0.33-1.25-0.8c-0.27-0.47-0.29-0.99-0.07-1.48
		c0.88-1.89,0.28-4.14-1.43-5.34c-0.43-0.3-0.68-0.78-0.68-1.31s0.25-1.01,0.68-1.31c1.71-1.2,2.31-3.45,1.43-5.34
		c-0.22-0.48-0.2-1.02,0.07-1.48c0.27-0.47,0.71-0.75,1.25-0.8c2.08-0.18,3.73-1.83,3.91-3.91c0.05-0.54,0.33-0.98,0.8-1.25
		c0.46-0.27,1-0.29,1.48-0.07c1.9,0.88,4.14,0.28,5.34-1.43c0.61-0.87,2.01-0.87,2.62-0.01l0.01,0.01c0,0,0,0,0,0l0.47,0.67
		l0.06-0.05c1.26,1.22,3.17,1.57,4.81,0.8c0.48-0.22,1.02-0.2,1.48,0.07c0.46,0.27,0.75,0.72,0.8,1.25
		c0.19,2.08,1.83,3.72,3.91,3.91c0.53,0.05,0.98,0.34,1.25,0.8c0.27,0.46,0.29,1,0.07,1.48c-0.88,1.9-0.28,4.14,1.43,5.34
		c0.44,0.31,0.68,0.77,0.68,1.31S36.03,21.01,35.58,21.31 M36.53,17.35c-1.06-0.74-1.43-2.14-0.89-3.31
		c0.45-0.97,0.4-2.06-0.13-2.99c-0.54-0.93-1.46-1.51-2.52-1.61c-1.29-0.11-2.31-1.13-2.42-2.42c-0.09-1.07-0.68-1.99-1.61-2.52
		c-0.93-0.54-2.02-0.58-2.99-0.13c-1.17,0.55-2.56,0.17-3.31-0.89C22.04,2.6,21.07,2.1,20,2.1c-1.07,0-2.04,0.5-2.65,1.38
		c-0.74,1.06-2.14,1.43-3.31,0.89c-0.97-0.45-2.06-0.4-2.99,0.13c-0.93,0.54-1.51,1.45-1.61,2.52C9.32,8.31,8.31,9.32,7.02,9.44
		c-1.07,0.09-1.99,0.68-2.52,1.61c-0.53,0.93-0.58,2.02-0.13,2.99c0.54,1.17,0.17,2.57-0.89,3.31C2.6,17.96,2.09,18.93,2.09,20
		s0.5,2.04,1.38,2.65c1.06,0.74,1.43,2.14,0.89,3.31c-0.45,0.97-0.4,2.06,0.13,2.99c0.54,0.93,1.46,1.51,2.52,1.61
		c1.29,0.11,2.31,1.13,2.42,2.42c0.1,1.07,0.68,1.99,1.61,2.52c0.93,0.53,2.01,0.58,2.99,0.13c1.14-0.53,2.58-0.15,3.31,0.89
		c0.62,0.88,1.59,1.38,2.65,1.38c1.07,0,2.04-0.5,2.65-1.38c0.75-1.06,2.14-1.43,3.31-0.89c0.97,0.45,2.06,0.4,2.99-0.13
		c0.93-0.54,1.51-1.45,1.61-2.52c0.12-1.29,1.13-2.31,2.42-2.42c1.07-0.09,1.99-0.68,2.52-1.61c0.53-0.93,0.58-2.02,0.13-2.99
		c-0.55-1.17-0.17-2.56,0.89-3.31c0.88-0.61,1.38-1.58,1.38-2.65C37.91,18.93,37.4,17.96,36.53,17.35"/>
	<path class="st0" d="M28.5,22.66l-3.91,4.79c0,0.01-0.01,0.01-0.01,0.02c-0.54,0.71-1.39,1.14-2.28,1.14h-5.1
		c-1.29,0-2.36-0.19-3.51-0.51v-3.49v-0.88l0.4-0.35c1.09-0.96,2.72-0.96,3.81,0c0.49,0.43,1.12,0.66,1.76,0.66h2.64
		c0.31,0,0.57,0.25,0.57,0.57c0,0.31-0.26,0.57-0.57,0.57h-4.06c-0.32,0-0.57,0.25-0.57,0.57s0.26,0.57,0.57,0.57h4.44
		c0.47,0,0.93-0.2,1.25-0.54c0.14-0.15,3.57-3.71,3.69-3.84c0,0,0,0,0,0c0,0,0,0,0,0c0.35-0.38,0.99-0.13,0.99,0.39
		C28.6,22.45,28.57,22.56,28.5,22.66 M18.29,18.29v3.95c-0.67-0.46-1.47-0.72-2.3-0.72c-0.83,0-1.63,0.25-2.3,0.72v-3.95H18.29z
		 M12.54,17.15v-1.68c0-0.31,0.26-0.57,0.57-0.57h5.18v2.25H12.54z M17.06,11.39c0.02,0,0.04,0,0.06,0
		c0.41,0.02,0.78,0.25,0.98,0.61l0.95,1.75h-1.98c-0.44,0-0.83-0.23-1.03-0.62C15.6,12.33,16.19,11.39,17.06,11.39 M19.43,14.9h1.14
		v7.99h-0.92c-0.07,0-0.15-0.01-0.22-0.02V14.9z M21.79,12.01c0.2-0.36,0.56-0.59,0.98-0.61c0.9-0.04,1.53,0.92,1.09,1.74
		c-0.21,0.39-0.6,0.62-1.03,0.62h-1.98L21.79,12.01z M26.32,18.29v3.35l-2.39,2.49c-0.21-0.71-0.87-1.23-1.64-1.23h-0.57v-4.61
		H26.32z M26.89,14.9c0.31,0,0.57,0.26,0.57,0.57v1.68h-5.75V14.9C21.89,14.9,26.72,14.9,26.89,14.9 M12.54,24.61v4H11.4V22.9h1.14
		V24.61z M27.46,20.71v-2.42h0.57c0.32,0,0.57-0.25,0.57-0.57v-2.25c0-0.94-0.77-1.71-1.71-1.71h-2.08c0.94-1.6-0.27-3.59-2.1-3.5
		c-0.82,0.04-1.54,0.49-1.93,1.21l-0.84,1.56l-0.84-1.56c-0.39-0.72-1.11-1.17-1.93-1.21c-1.83-0.09-3.04,1.9-2.1,3.5h-1.96
		c-0.94,0-1.71,0.77-1.71,1.71v2.25c0,0.32,0.26,0.57,0.57,0.57h0.57v3.47h-1.71c-0.32,0-0.57,0.25-0.57,0.57v6.85
		c0,0.32,0.25,0.57,0.57,0.57h2.28c0.28,0,0.51-0.2,0.56-0.47c1.12,0.31,2.33,0.47,3.52,0.47h5.1c1.25,0,2.44-0.59,3.19-1.59
		c0.01-0.01,3.92-4.79,3.93-4.81c0.22-0.3,0.34-0.65,0.34-1.03C29.75,21.15,28.59,20.31,27.46,20.71"/>
</g>
</svg>
