<svg id="Layer_1" data-name="Layer 1" xmlns="http://www.w3.org/2000/svg" viewBox="0 0 34.1 34.1"><defs><style>.cls-1,.cls-3{fill:#fff;}.cls-2{fill:#25d366;}.cls-3{fill-rule:evenodd;}</style></defs><path class="cls-1" d="M33.9,17A16.9,16.9,0,1,1,17,.1,16.8,16.8,0,0,1,33.9,16.8Z"/><path class="cls-2" d="M7.3,26.8l1.4-5a9.5,9.5,0,0,1-1.3-4.9,9.7,9.7,0,0,1,9.7-9.7,9.2,9.2,0,0,1,6.8,2.9,9.4,9.4,0,0,1,2.9,6.8,9.7,9.7,0,0,1-9.7,9.7h0a10.5,10.5,0,0,1-4.7-1.1Z"/><path class="cls-3" d="M22,19.3l-.5-.3-1.7-.8c-.2-.1-.4-.1-.5.1l-.8,1H18a8.6,8.6,0,0,1-2-1.2,5,5,0,0,1-1.3-1.7c-.1-.2,0-.3.1-.5l.4-.4c.1-.1.1-.2.2-.4s0-.3,0-.4a17.8,17.8,0,0,1-.8-1.8c-.2-.5-.4-.4-.5-.4h-.5a.7.7,0,0,0-.6.3,2.6,2.6,0,0,0-.9,2,5,5,0,0,0,1,2.5A10.5,10.5,0,0,0,17.3,21l1.3.5h1.6c.4-.1,1.4-.6,1.6-1.2A3.4,3.4,0,0,0,22,19.3Z"/></svg>