<?xml version="1.0" encoding="utf-8"?>
<!-- Generator: Adobe Illustrator 23.0.3, SVG Export Plug-In . SVG Version: 6.00 Build 0)  -->
<svg version="1.1" id="Layer_1" xmlns="http://www.w3.org/2000/svg" xmlns:xlink="http://www.w3.org/1999/xlink" x="0px" y="0px"
	 viewBox="0 0 109 56" style="enable-background:new 0 0 109 56;" xml:space="preserve">
<style type="text/css">
	.st0{fill:#A52069;}
	.st1{fill:#ACABAE;}
</style>
<g>
	<path class="st0" d="M6.6,15.4c-1.2-1.2-1.9-2.9-1.9-5s0.6-3.7,1.9-5s2.9-1.9,5-1.9c1.7,0,3.2,0.4,4.5,1.3l0.4,2.7h-0.2
		C16,6.4,15.4,5.6,14.6,5c-0.8-0.6-1.8-0.9-3-0.9c-1.6,0-3,0.6-3.9,1.7c-1,1.2-1.5,2.7-1.5,4.5c0,1.9,0.5,3.4,1.5,4.6
		s2.3,1.7,3.8,1.8c1.4,0,2.6-0.4,3.5-1.1c1-0.8,1.6-2.2,1.9-4.1H17l-0.2,3c-1.1,1.9-2.9,2.8-5.3,2.8C9.5,17.2,7.9,16.6,6.6,15.4"/>
	<path class="st0" d="M28.7,16.8c0.3,0,0.6-0.1,0.8-0.4s0.4-0.5,0.4-0.8V5.1c0-0.3-0.2-0.6-0.4-0.8C29.2,4.1,29,4,28.7,4h-0.2l0-0.2
		h5.5c0.4,0,0.8,0,1.3-0.1c0.5-0.1,0.8-0.2,1-0.2v2.4H36V5.5c0-0.3-0.1-0.6-0.3-0.8c-0.2-0.2-0.5-0.3-0.7-0.3h-3.8v5.8h3.2
		c0.2,0,0.5-0.1,0.6-0.3c0.2-0.2,0.3-0.4,0.3-0.7V9h0.2v3h-0.2v-0.3c0-0.2-0.1-0.5-0.3-0.6c-0.2-0.2-0.4-0.3-0.6-0.3h-3.2v5.6h2.7
		c0.9,0,1.6-0.2,2.1-0.6c0.5-0.4,0.9-1,1.2-1.9h0.2l-1.1,3h-7.8v-0.2C28.4,16.8,28.7,16.8,28.7,16.8z"/>
	<path class="st0" d="M50.9,4.4h-1.2v11.2c0,0.3,0.1,0.6,0.3,0.8s0.5,0.4,0.9,0.4h0.2l0,0.2H47v-0.2h0.2c0.3,0,0.6-0.1,0.8-0.3
		s0.3-0.5,0.4-0.8V5.2c0-0.3-0.1-0.6-0.4-0.8C47.8,4.1,47.6,4,47.2,4H47V3.8h5.1c1.1,0,2,0.3,2.7,0.9c0.7,0.6,1,1.5,1,2.5
		s-0.3,1.9-0.9,2.6c-0.6,0.7-1.4,1.1-2.3,1.1c0.2,0.1,0.4,0.3,0.7,0.5c0.3,0.3,0.5,0.5,0.7,0.8c1.1,1.5,1.8,2.5,2.1,2.8
		c0.3,0.4,0.6,0.6,0.7,0.7c0.1,0.1,0.3,0.3,0.5,0.4s0.3,0.2,0.5,0.3c0.4,0.2,0.8,0.3,1.2,0.3V17h-1c-0.5,0-1-0.1-1.5-0.3
		s-0.8-0.4-1-0.6c-0.2-0.2-0.4-0.4-0.6-0.6c-0.2-0.2-0.6-0.8-1.4-1.9c-0.8-1.1-1.2-1.7-1.3-1.9c-0.1-0.2-0.3-0.3-0.4-0.5
		c-0.4-0.4-0.8-0.6-1.2-0.6v-0.2c0.1,0,0.2,0,0.4,0c0.2,0,0.4,0,0.6,0c1.6,0,2.5-0.7,2.9-2c0.1-0.2,0.1-0.5,0.1-0.7V7.3
		c0-0.8-0.2-1.5-0.7-2c-0.4-0.5-1-0.8-1.7-0.8C51.7,4.4,51.3,4.4,50.9,4.4"/>
	<path class="st0" d="M65.9,16.8c0.3,0,0.6-0.1,0.8-0.4c0.2-0.2,0.3-0.5,0.4-0.8V5.2c0-0.3-0.1-0.6-0.4-0.8C66.5,4.1,66.2,4,65.9,4
		h-0.2V3.8h4.1V4h-0.2c-0.3,0-0.6,0.1-0.8,0.3c-0.2,0.2-0.4,0.5-0.4,0.8v10.5c0,0.3,0.1,0.6,0.4,0.8s0.5,0.4,0.8,0.4h0.2V17h-4.1
		v-0.2L65.9,16.8L65.9,16.8z"/>
	<path class="st0" d="M80,16.2c0-0.2-0.1-0.5-0.1-1s0.1-1,0.3-1.6h0.2c0,0.1,0,0.3,0,0.4c0,0.8,0.2,1.4,0.7,1.9
		c0.5,0.5,1.1,0.8,1.8,0.8c0.8,0,1.4-0.2,1.9-0.7c0.5-0.5,0.8-1.1,0.8-1.8s-0.2-1.3-0.7-1.8l-3.6-3.3c-0.7-0.6-1-1.4-1-2.3
		s0.3-1.7,0.9-2.3c0.6-0.6,1.4-0.9,2.4-0.9c0.5,0,1,0.1,1.6,0.2h0.7v2.3h-0.2c0-0.6-0.2-1.1-0.6-1.4c-0.4-0.3-0.9-0.5-1.6-0.5
		s-1.2,0.2-1.6,0.6s-0.7,1-0.7,1.6S81.5,7.5,82,8l3.7,3.4c0.6,0.6,0.9,1.4,0.9,2.4c0,1-0.3,1.8-1,2.5c-0.6,0.6-1.5,1-2.6,1
		c-0.6,0-1.1-0.1-1.8-0.2C80.8,16.8,80.3,16.6,80,16.2"/>
	<path class="st0" d="M97.1,16.8c0.3,0,0.6-0.1,0.8-0.4c0.2-0.2,0.3-0.5,0.4-0.8V5.1c0-0.3-0.2-0.6-0.4-0.8C97.6,4.1,97.4,4,97.1,4
		h-0.2l0-0.2h5.5c0.4,0,0.8,0,1.3-0.1c0.5-0.1,0.8-0.2,1-0.2v2.4h-0.2V5.5c0-0.3-0.1-0.6-0.3-0.8s-0.5-0.3-0.7-0.3h-3.8v5.8h3.2
		c0.2,0,0.5-0.1,0.6-0.3c0.2-0.2,0.3-0.4,0.3-0.7V9h0.2v3h-0.2v-0.3c0-0.2-0.1-0.5-0.2-0.6c-0.2-0.2-0.4-0.3-0.6-0.3h-3.2v5.6h2.7
		c0.9,0,1.6-0.2,2.1-0.6c0.5-0.4,0.9-1,1.2-1.9h0.2l-1.1,3h-7.8v-0.2C96.8,16.8,97.1,16.8,97.1,16.8z"/>
	<path class="st0" d="M58.5,41.8c-0.5,0.2-1.3,0.8-2.1,2.2c-0.4-1.8-1.4-3.2-1.4-3.2s-0.9,1.4-1.4,3.2c-0.8-1.3-1.6-1.9-2.1-2.2
		c-0.3,2.7,0.8,5.9,3,6.4v3.4c0,0.3,0.2,0.5,0.5,0.5s0.5-0.2,0.5-0.5v-3.4C57.8,47.7,58.8,44.4,58.5,41.8"/>
	<path class="st0" d="M49.6,32.2c-0.5,0.2-1.3,0.8-2.1,2.2c-0.4-1.8-1.4-3.2-1.4-3.2s-0.9,1.4-1.4,3.2c-0.8-1.3-1.6-1.9-2.1-2.2
		c-0.3,2.7,0.8,5.9,3,6.4v3.4c0,0.3,0.2,0.5,0.5,0.5s0.5-0.2,0.5-0.5v-3.4C48.8,38.1,49.9,34.9,49.6,32.2"/>
	<path class="st0" d="M67.5,32.2c-0.5,0.2-1.3,0.8-2.1,2.2c-0.4-1.8-1.4-3.2-1.4-3.2s-0.9,1.4-1.4,3.2c-0.8-1.3-1.6-1.9-2.1-2.2
		c-0.3,2.7,0.8,5.9,3,6.4v3.4c0,0.3,0.2,0.5,0.5,0.5s0.5-0.2,0.5-0.5v-3.4C66.7,38.1,67.7,34.9,67.5,32.2"/>
</g>
</svg>
